# xmcd CD database file
#
# Track frame offsets:
#	150
#	20794
#	45421
#	68146
#	90418
#	105418
#	123713
#	148246
#	167926
#	180421
#	200290
#	214619
#	226657
#	244076
#	255758
#	269713
#	281760
#	298716
#	321997
#	337345
#
# Disc length: 4789 seconds
#
# Revision: 0
# Processed by: cddbd v1.5PL3 Copyright (c) Steve Scherf et al.
# Submitted via: CDex 1.51
#
DISCID=3012b314
DTITLE=Cuba Vista - vil. 2
DYEAR=1900
DGENRE=Salsa
TTITLE0=Los Cuatro De Belen - La Caminadora
TTITLE1=Felix Dima Cuartero - Marieta
TTITLE2=David Alvarez - Cantando Una Pena
TTITLE3=Los Cuatro De Belen - Guantanamera
TTITLE4=Marvin Santiago - Fuego A La Jikotea
TTITLE5=Tipico Oriental Cubano - Hasta Siempre Comandante
TTITLE6=Union Sanluisera - Lo Mio Es Mio
TTITLE7=Los Cuatro De Belen - Bilongo
TTITLE8=Carlos Diaz Y La Orquestra De Ernesto Duarte - Corazon De Melon
TTITLE9=El Son Entero - Desame Mucho
TTITLE10=Soneros De Verdad - A Buena Vista
TTITLE11=Rosita Fornws and La Orquestra De Hermano Castro - Mi Hombre
TTITLE12=Los Herederos - Que Rico Son
TTITLE13=El Son Entaro - Piel Canela
TTITLE14=Felix Dima Cuatero - Cholito
TTITLE15=Carlos Diaz, Kino Maran, Felo Martinez Y La Orquestra De Hermanos Castro - Sabrosona
TTITLE16=David Alvarez - Cuida'o Cuida'o
TTITLE17=Ralphine Leavitt - Como El Morivivi
TTITLE18=Los Cuatro De Belen - Suavecito
TTITLE19=Union Sanluisera - Si Por Eso No Vinisters
EXTD=
EXTT0=
EXTT1=
EXTT2=
EXTT3=
EXTT4=
EXTT5=
EXTT6=
EXTT7=
EXTT8=
EXTT9=
EXTT10=
EXTT11=
EXTT12=
EXTT13=
EXTT14=
EXTT15=
EXTT16=
EXTT17=
EXTT18=
EXTT19=
PLAYORDER=
